<?xml version="1.0" encoding="utf-8"?>
<!-- Generator: Adobe Illustrator 16.0.3, SVG Export Plug-In . SVG Version: 6.00 Build 0)  -->
<!DOCTYPE svg PUBLIC "-//W3C//DTD SVG 1.1//EN" "http://www.w3.org/Graphics/SVG/1.1/DTD/svg11.dtd">
<svg version="1.1" id="Capa_1" xmlns="http://www.w3.org/2000/svg" xmlns:xlink="http://www.w3.org/1999/xlink" x="0px" y="0px"
	 width="610.559px" height="407.156px" viewBox="0 0 610.559 407.156" enable-background="new 0 0 610.559 407.156"
	 xml:space="preserve">
<ellipse transform="matrix(0.985 -0.1727 0.1727 0.985 -30.5764 55.7933)" fill-rule="evenodd" clip-rule="evenodd" fill="#F4310F" stroke="#FFFFFF" stroke-width="7" stroke-miterlimit="10" cx="305.279" cy="203.577" rx="304.424" ry="195.938"/>
<path fill-rule="evenodd" clip-rule="evenodd" fill="#FFFFFF" d="M447.162,94.951c5.333-0.924,7.534-3.078,8.04-7.461
	c0.578-5.013,4.016-7.105,8.976-7.707c3.097-0.375,6.339-1.475,9.004-3.092c5.55-3.368,9.96-1.172,11.503,6.444
	c15.238,2.495,23.045,12.46,26.078,26.97c1.326,6.35-0.514,10.88-6.337,13.668c-13.657,6.539-27.429,12.845-41.269,18.987
	c-1.539,0.684-3.816-0.296-5.752-0.505c1.066-1.594,1.769-3.938,3.258-4.662c12.865-6.256,25.813-12.35,38.866-18.202
	c4.77-2.139,6.185-5.295,4.483-9.95c-1.307-3.572-2.461-7.342-4.518-10.476c-7.254-11.048-20.39-12.313-29.996-2.959
	c-8.697,8.468-11.947,19.335-12.898,31.089c-0.254,3.146-0.248,6.34-0.808,9.431c-1.235,6.823-6.811,11.61-13.497,11.942
	c-6.578,0.326-12.49-4.18-14.332-10.923c-3.939-14.419,4.183-39.153,15.859-48.245c0.784-0.609,1.619-1.428,2.516-1.557
	c1.5-0.217,3.07,0.045,4.61,0.105c-0.374,1.591-0.616,3.23-1.183,4.75C449.519,93.266,448.608,93.688,447.162,94.951z M459.44,96.27
	c3.527-3.035,7.055-6.069,11.04-9.499c-7.946-1.035-7.913-1.027-9.436,5.437c-0.338,1.435-0.989,2.797-1.486,4.205
	c-1.122,0.697-2.165,1.615-3.382,2.053c-4.843,1.741-5.185,4.777-2.228,9.829C455.985,103.836,457.713,100.053,459.44,96.27z
	 M444.454,97.244c-9.162,12.355-11.859,25.122-10.052,38.896c0.491,3.742,3.386,6.161,7.469,5.953
	c3.892-0.199,6.542-2.342,7.378-6.234c0.395-1.843,0.34-3.782,0.471-5.462c-3.266,1.487-6.109,3.06-9.15,3.998
	c-0.893,0.276-2.746-0.999-3.373-2.036c-0.353-0.584,0.639-2.816,1.475-3.141c4.646-1.801,3.432-4.189,1.271-7.181
	c-2.49-3.448-3.456-7.787,0.75-9.993C447.161,108.65,445.833,103.867,444.454,97.244z M450.21,123.924
	c0.722-3.744,1.385-7.182,2.1-10.892C443.563,116.668,443.252,118.16,450.21,123.924z"/>
<g>
	<path fill-rule="evenodd" clip-rule="evenodd" fill="#FFFFFF" d="M468.398,315.924c-5.66,0.005-11.322,0.103-16.979-0.017
		c-11.137-0.233-19.286-5.387-24.609-15.154c-0.769-1.41-1.706-2.938-2.975-3.83c-5.294-3.723-6.013-6.436-3.968-12.574
		c0.726-2.176,0.606-5.045-0.172-7.225c-1.538-4.309-1.236-8.087,2.399-10.77c2.925-2.158,3.53-4.697,3.868-8.045
		c1.533-15.175,9.807-26.01,23.774-31.193c13.576-5.039,27.783-5.158,41.311,1.176c12.826,6.007,19.474,16.521,21.521,30.376
		c0.394,2.659,1.822,5.533,3.629,7.536c3.214,3.562,3.994,6.898,1.936,11.331c-0.813,1.749-0.788,4.392-0.102,6.24
		c2.399,6.456,1.667,9.155-4.133,13.333c-1.144,0.822-2.074,2.158-2.695,3.453c-4.809,10.03-12.985,14.859-23.834,15.311
		C481.057,316.134,474.723,315.919,468.398,315.924z M469.432,263.776c0,0.012,0,0.022,0,0.034c10.314,0,20.63-0.063,30.943,0.031
		c4.135,0.037,5.596-1.527,5-5.782c-1.455-10.389-6.984-18.208-15.917-22.838c-13.531-7.015-27.784-6.677-41.232,0.226
		c-8.436,4.33-13.808,11.824-15.236,21.613c-0.8,5.482,0.069,6.662,5.499,6.697C448.803,263.822,459.117,263.776,469.432,263.776z
		 M432.906,293.641c-0.42,8.521,9.415,15.583,17.026,15.728c12.978,0.246,25.977,0.434,38.938-0.075
		c8.695-0.342,16.041-7.644,16.076-15.39c-1.674,0.63-3.241,0.926-4.472,1.734c-5.3,3.482-10.519,3.875-15.728-0.053
		c-2.628-1.98-5.047-1.822-7.772-0.014c-5.189,3.441-10.576,3.83-15.799,0.014c-2.69-1.966-5.054-1.813-7.727,0.106
		c-5.024,3.607-10.151,3.521-15.329,0.06C436.746,294.833,435.002,294.466,432.906,293.641z M512.292,289.585
		c-2.153-6.404-6.009-7.457-10.319-7.496c-9.127-0.081-18.275-0.321-27.375,0.189c-2.75,0.155-5.488,2.395-7.982,4.055
		c-0.758,0.505-1.252,2.566-0.83,3.374c0.476,0.912,2.129,1.688,3.252,1.663c1.373-0.03,2.842-0.767,4.07-1.521
		c5.176-3.175,10.094-3.222,15.39,0.052c1.758,1.088,5.124,1.536,6.717,0.568C500.383,287.327,505.41,285.777,512.292,289.585z
		 M471.716,270.854c-10.025,0-18.713,0-27.401,0c-0.214,0.36-0.428,0.722-0.643,1.083c4.022,3.828,7.975,7.736,12.143,11.396
		c0.63,0.553,2.701,0.428,3.369-0.186C463.178,279.481,466.955,275.58,471.716,270.854z M477.951,273.89
		c2.563,0.875,3.449,1.44,4.338,1.441c8.474,0.007,16.949,0.014,25.418-0.242c1.324-0.04,2.61-1.404,3.914-2.156
		c-1.417-0.82-2.813-2.307-4.254-2.352c-7.471-0.23-14.962-0.276-22.428,0.043C483.01,270.707,481.147,272.337,477.951,273.89z
		 M426.816,286.988c5.018,0.776,9.442,1.32,13.796,2.211c1.542,0.315,2.886,2.041,4.362,2.104c1.578,0.068,3.207-1.067,4.814-1.678
		c-0.523-1.252-0.771-2.746-1.617-3.716c-3.641-4.167-13.672-5.483-18.27-2.36C428.531,284.479,427.612,286.076,426.816,286.988z
		 M434.717,274.984c0.133-0.414,0.266-0.83,0.398-1.244c-1.06-0.935-1.987-2.333-3.213-2.682c-1.42-0.402-3.137-0.028-4.649,0.328
		c-0.435,0.104-0.937,1.881-0.853,1.93c1.322,0.764,2.682,1.641,4.145,1.934C431.865,275.513,433.32,275.099,434.717,274.984z"/>
	<path fill-rule="evenodd" clip-rule="evenodd" fill="#FFFFFF" d="M484.906,238.914c-2.087,1.27-3.187,2.457-4.251,2.426
		c-0.903-0.025-2.602-1.655-2.468-2.227c0.261-1.105,1.473-2.604,2.461-2.746C481.617,236.228,482.8,237.572,484.906,238.914z"/>
	<path fill-rule="evenodd" clip-rule="evenodd" fill="#FFFFFF" d="M449.793,244.492c-2.015,1.281-3.199,2.633-4.172,2.494
		c-1.089-0.156-1.986-1.66-2.967-2.577c0.986-0.896,1.909-2.401,2.977-2.513C446.633,241.792,447.788,243.162,449.793,244.492z"/>
	<path fill-rule="evenodd" clip-rule="evenodd" fill="#FFFFFF" d="M469.106,248.451c-1.344-1.939-2.776-3.113-2.636-4.054
		c0.142-0.948,1.783-2.169,2.885-2.301c0.733-0.089,2.355,1.532,2.344,2.37C471.685,245.527,470.414,246.569,469.106,248.451z"/>
	<path fill-rule="evenodd" clip-rule="evenodd" fill="#FFFFFF" d="M492.135,248.25c-1.132-1.809-2.53-3.078-2.316-3.953
		c0.249-1.021,1.932-2.358,2.949-2.322c0.904,0.031,2.436,1.756,2.429,2.725C495.189,245.668,493.621,246.628,492.135,248.25z"/>
	<path fill-rule="evenodd" clip-rule="evenodd" fill="#FFFFFF" d="M457.021,242.478c-1.056-1.809-2.335-3.121-2.06-3.723
		c0.482-1.052,1.918-1.667,2.954-2.466c0.688,0.955,1.941,1.931,1.906,2.859C459.788,240.047,458.43,240.896,457.021,242.478z"/>
</g>
<g>
	<path fill-rule="evenodd" clip-rule="evenodd" fill="#FFFFFF" d="M176.955,291.016c-0.885,7.701-1.669,14.594-2.468,21.484
		c-0.651,5.619-1.454,11.226-1.944,16.859c-0.633,7.278-3.758,12.995-10.769,15.399c-7.044,2.414-13.8,1.318-19.397-4.199
		c-9.127-9-18.3-17.951-27.441-26.935c-2.492-2.447-5.146-4.768-7.375-7.439c-8.365-10.029-7.607-22.917,1.679-31.332
		c8.865-8.032,22.815-7.45,31.597,1.469c2.162,2.195,3.89,4.819,6.389,7.967c1.736-4.97,3.275-9.305,4.766-13.657
		c5.318-15.537,20.926-19.452,32.777-8.133c6.379,6.093,12.525,12.427,18.914,18.509c3.434,3.268,2.842,5.866-0.566,8.622
		c-6.234,5.043-13.273,4.5-20.439,3.133C181.074,292.458,179.535,291.817,176.955,291.016z M197.284,284.674
		c-6.608-6.344-12.276-11.871-18.04-17.299c-7.189-6.769-16.436-4.705-19.857,4.494c-2.436,6.55-4.924,13.115-6.721,19.851
		c-0.797,2.987-0.359,6.498,0.277,9.616c0.654,3.217,2.496,6.182,3.27,9.389c0.287,1.195-0.814,3.82-1.572,3.939
		c-1.436,0.225-3.254-0.639-4.576-1.543c-0.82-0.561-1.058-2.014-1.496-3.091c-3.447-8.474-6.656-17.054-10.395-25.397
		c-2.632-5.874-7.818-8.713-14.137-8.41c-5.998,0.287-11.089,3.103-13.443,8.852c-2.246,5.48-2.365,11.313,2.178,15.871
		c11.744,11.787,23.684,23.381,35.593,35.003c2.824,2.756,6.288,3.926,10.093,2.477c4.055-1.543,6.412-4.676,6.867-9.036
		c0.381-3.64,1.092-7.351,0.715-10.931c-0.303-2.878-1.914-5.653-3.131-8.391c-1.127-2.536-2.5-4.963-3.764-7.438
		c2.587-0.255,5.174-0.511,8.569-0.845c1.469-2.656-1.111-4.776-3.27-7.025c-2.039-2.125-3.003-5.059,0.216-6.01
		c5.123-1.511,5.35-3.766,3.257-7.93c-0.53-1.055,0.181-3.801,1.075-4.242c1.233-0.608,3.557-0.291,4.748,0.561
		c2.547,1.82,4.564,4.36,6.984,6.383C185.216,287.278,190.164,287.846,197.284,284.674z"/>
	<path fill-rule="evenodd" clip-rule="evenodd" fill="#FFFFFF" d="M131.857,287.108c-2.091,1.236-3.351,2.551-4.56,2.506
		c-0.891-0.033-1.716-1.842-2.57-2.859c1.118-0.938,2.14-2.397,3.388-2.629C128.928,283.974,130.072,285.61,131.857,287.108z"/>
	<path fill-rule="evenodd" clip-rule="evenodd" fill="#FFFFFF" d="M127.143,299.549c-1.861,1.387-2.954,2.83-3.902,2.74
		c-1.061-0.1-1.992-1.587-2.979-2.471c0.909-0.971,1.714-2.557,2.756-2.732C123.965,296.926,125.173,298.296,127.143,299.549z"/>
	<path fill-rule="evenodd" clip-rule="evenodd" fill="#FFFFFF" d="M136.223,299.803c1.197,1.902,2.523,3.08,2.422,4.118
		c-0.096,0.987-1.684,1.829-2.617,2.735c-0.982-1.023-2.547-1.943-2.756-3.105C133.121,302.71,134.771,301.547,136.223,299.803z"/>
</g>
<path fill-rule="evenodd" clip-rule="evenodd" fill="#FFFFFF" d="M301.764,48.315c-67.655,0-122.501,56.562-122.501,126.333
	s54.846,126.333,122.501,126.333s122.5-56.561,122.5-126.333S369.419,48.315,301.764,48.315z M302.931,282.315
	c-58.175,0-105.334-48.205-105.334-107.667c0-59.463,47.159-107.667,105.334-107.667c58.174,0,105.333,48.204,105.333,107.667
	C408.264,234.11,361.104,282.315,302.931,282.315z"/>
<g>
	<path fill-rule="evenodd" clip-rule="evenodd" fill="#FFFFFF" stroke="#CB8676" stroke-miterlimit="10" d="M260.196,125.731
		c0,0,38-23.5,78.75-4.25c0,0,22-20.578,41.75-1.664c0,0,20.25,16.414,0,43.164c0,0,20.583,35.084-20.083,69.417
		c0,0-37.333,36-98,11c0,0-47.666-19.667-39.333-71c0,0-30.667-18.333-10.333-46C212.946,126.398,235.113,98.731,260.196,125.731z"
		/>
	
		<ellipse fill-rule="evenodd" clip-rule="evenodd" fill="#CB8676" stroke="#CB8676" stroke-miterlimit="10" cx="296.363" cy="174.648" rx="8.917" ry="8.25"/>
	
		<ellipse fill-rule="evenodd" clip-rule="evenodd" fill="#CB8676" stroke="#CB8676" stroke-miterlimit="10" cx="348.197" cy="173.463" rx="8.417" ry="8.564"/>
	<path fill-rule="evenodd" clip-rule="evenodd" fill="none" stroke="#CB8676" stroke-miterlimit="10" d="M225.613,157.731
		c0,0-10.333-9.667,0-23.667c0,0,9.667-10.333,21.667-4"/>
	<path fill-rule="evenodd" clip-rule="evenodd" fill="none" stroke="#CB8676" stroke-miterlimit="10" d="M353.613,125.398
		c0,0,12-7.442,22.667,2.612c0,0,11.667,11.721,0,22.054"/>
	<path fill-rule="evenodd" clip-rule="evenodd" fill="#FFFFFF" stroke="#CB8676" stroke-miterlimit="10" d="M281.946,205.731
		c0,0-3.667-16.666,25-29.333c0,0,34-9.667,49.333,10.667c0,0,16.333,22.333-19.333,42c0,0-17.547,10-39.107-1.667
		C297.839,227.398,286.613,222.064,281.946,205.731z"/>
	<path fill-rule="evenodd" clip-rule="evenodd" fill="none" stroke="#CB8676" stroke-miterlimit="10" d="M305.28,217.731
		c0,0,24.667,14.833,43.667-2.667"/>
	<path fill-rule="evenodd" clip-rule="evenodd" fill="none" stroke="#CB8676" stroke-miterlimit="10" d="M330.468,223.431
		c0,0,11.146-13.199,7.312-23.032"/>
	<path fill-rule="evenodd" clip-rule="evenodd" fill="#CB8676" stroke="#CB8676" stroke-miterlimit="10" d="M337.78,200.398
		c0,0,6.833-0.833,10.167-8c0,0,5.271-9.333-9.364-8.833c0,0-22.806-1.315-11.469,11C327.113,194.565,331.28,198.732,337.78,200.398
		z"/>
</g>
<g>
	<path fill-rule="evenodd" clip-rule="evenodd" fill="#FFFFFF" d="M117.379,148.124c0-5.472-0.251-10.962,0.149-16.405
		c0.125-1.697,2.009-3.265,3.088-4.892c1.242,1.63,3.508,3.229,3.559,4.896c0.334,10.933,0.366,21.887,0.029,32.819
		c-0.057,1.86-2.363,3.651-3.63,5.474c-1.054-1.826-2.873-3.594-3.016-5.488c-0.412-5.44-0.145-10.932-0.145-16.404
		C117.401,148.124,117.39,148.124,117.379,148.124z"/>
	<path fill-rule="evenodd" clip-rule="evenodd" fill="#FFFFFF" d="M137.28,148.316c0,5.307,0.306,10.64-0.154,15.906
		c-0.177,2.035-2.091,3.917-3.213,5.87c-1.198-1.856-3.372-3.683-3.432-5.575c-0.334-10.61-0.163-21.235-0.146-31.856
		c0.001-0.825-0.141-1.839,0.267-2.437c0.855-1.252,2.032-2.285,3.077-3.408c1.118,1.2,3.129,2.349,3.201,3.609
		c0.341,5.946,0.152,11.923,0.152,17.889C137.114,148.314,137.197,148.315,137.28,148.316z"/>
	<path fill-rule="evenodd" clip-rule="evenodd" fill="#FFFFFF" d="M104.438,148.57c0-5.499-0.284-11.021,0.162-16.483
		c0.146-1.786,2.188-3.417,3.364-5.119c1.179,1.738,3.323,3.447,3.378,5.22c0.344,10.988,0.36,21.993,0.098,32.984
		c-0.039,1.637-2.118,3.225-3.253,4.836c-1.234-1.647-3.386-3.217-3.534-4.956c-0.462-5.46-0.17-10.983-0.17-16.482
		C104.467,148.57,104.453,148.57,104.438,148.57z"/>
	<path fill-rule="evenodd" clip-rule="evenodd" fill="#FFFFFF" d="M165.816,140.728c-0.251-6.909-4.12-11.187-10.887-12.163
		c-7.797-1.125-10.544,0.576-10.48-7.042c0.012-1.427,0.812-5.385,1.417-6.708c2.753-6.025,1.063-8.048-2.583-11.5
		c-1.221-1.156,0.668-4.214-1.292-5.144c-1.448-0.687-4.988,0.322-6.292-0.606c-1.737-1.237-2.972-5.898-6.667-5.333
		c-2.44,0.374-5.414,4.475-6.25,2.458c-1.917-4.625-6.333-4.272-8.25-3.833c-1.424,0.327-2.417,0.583-3.5,1.917
		c-1.643,2.022-1.735,5.037-4.583,4.083c-9.083-3.042-10.67,8.775-8.75,16.917c0.604,2.563,1.503,5.783,1.354,8.375
		c-1.056,18.284-2.764,36.785-3.938,55.063c-0.369,5.743,8.27,4.358,13.833,4.396c12.333,0.083,15.265,0.608,28.431,0.583
		c12.393-0.023,12.621,0.929,12.665-11.519c0.004-1.342,1.7-3.339,3.069-3.884c2.407-0.959,4.946-1.604,7.627-2.277
		c0.015-0.008,3.499-1.801,4.107-6.377c0.004-0.03,0.011-0.054,0.016-0.083c0.719-4.323,0.97-9.12,0.97-9.12
		C165.833,146.195,165.916,143.458,165.816,140.728z M138.047,177.029c-5.661-0.154-11.329-0.039-16.993-0.039
		c-5.832-0.011-11.666-0.112-17.494,0.026c-3.52,0.083-5.251-1.057-5.004-4.891c1.018-15.783,1.948-31.573,2.79-47.367
		c0.188-3.529,1.542-9.801,5.187-9.736c9.495,0.168,19.088,0.38,28.583,0.25c3.785-0.051,8.223,5.665,8.417,9.417
		c0.801,15.455,1.909,30.897,3,46.333C146.838,175.348,142.065,177.139,138.047,177.029z M139.94,113.762
		c-6.309,0.178-12.626,0.046-18.94,0.046c0,0.016,0,0.031,0,0.047c-5.483,0-10.967,0.047-16.45-0.013
		c-5.768-0.063-6.317-3.543-5.374-9.328c0.354-2.172,1.491-7.736,7.023-6.159c6.192,1.765,1.271-1.24,7-4.167
		c1.041-0.532,6.752-0.434,8.5,2.333c2,3.167,2.742-2.833,9.5-1c1.859,0.504,2.658,5.239,6.25,3.938
		c1.438-0.521,3.424,1.359,3.542,3.479c0.125,2.25,2.888,2.18,3.927,4.347C146.552,110.695,144.085,113.645,139.94,113.762z
		 M161.247,155.003c-0.267,4.662-3.788,7.551-8.288,7.457c-1.014-0.021-2.813,0.438-2.952-1.715
		c0.015-2.191,1.249-2.037,2.053-2.208c3.799-0.808,4.539-3.409,4.452-6.694c-0.04-1.493-0.033-2.99,0.032-4.482
		c0.231-5.342,0.422-10.614-7.052-11.103c-0.427-0.028,0.049-1.799-0.221-2.61c7.451-3.459,11.83,0.618,12.042,7.911
		C161.443,146.037,161.502,150.534,161.247,155.003z M153.185,140.042v15.125C142.685,147.292,153.185,140.042,153.185,140.042z"/>
</g>
</svg>
